<svg xmlns="http://www.w3.org/2000/svg" viewBox="0 0 432.81 39.99"><defs><style>.cls-1{fill:#0fff8b;}.cls-2{fill:#153f3d;}</style></defs><g id="Camada_2" data-name="Camada 2"><g id="Camada_1-2" data-name="Camada 1"><path class="cls-1" d="M189.75,10.32a10.26,10.26,0,0,1-3,7.3L168.59,35.75l-8.42-8.42L164,23.52l4.61,4.61L174,22.69l-4.61-4.6,3.82-3.82,4.6,4.61,5.07-5.07a4.93,4.93,0,1,0-7-7L165.12,17.64a10.32,10.32,0,1,1,0-14.6l-3.81,3.82a4.94,4.94,0,1,0,0,7L172.12,3h0a10.33,10.33,0,0,1,17.63,7.3Z"/><path class="cls-2" d="M23.09,21.53A8,8,0,0,0,22.5,20a4.08,4.08,0,0,0-1-1.21c-.46-.38-.86-.7-1.19-.95a5.5,5.5,0,0,0-1.5-.73l-1.52-.52a12.75,12.75,0,0,0-1.69-.43q-1.19-.24-1.62-.3t-1.62-.27c-.75-.1-1.38-.21-1.88-.32S9.39,15,8.77,14.82a6,6,0,0,1-1.47-.69,3.34,3.34,0,0,1-.93-1A2.68,2.68,0,0,1,6,11.68,3.16,3.16,0,0,1,7.5,8.93a8,8,0,0,1,4.43-1,18.47,18.47,0,0,1,8.65,2.18l1.9-3.67A22.51,22.51,0,0,0,12.17,3.92,14,14,0,0,0,4.1,6a6.81,6.81,0,0,0-3,5.95,7.27,7.27,0,0,0,.45,2.62,4.75,4.75,0,0,0,1.33,2,12.9,12.9,0,0,0,1.8,1.36A8.57,8.57,0,0,0,7,18.8c.9.24,1.65.42,2.26.54s1.35.25,2.24.39,1.63.25,2.12.34,1.11.24,1.82.45a5.82,5.82,0,0,1,1.62.66,3.61,3.61,0,0,1,1,1,2.69,2.69,0,0,1,.43,1.5,3.36,3.36,0,0,1-1.66,3,8,8,0,0,1-4.41,1.07A16.56,16.56,0,0,1,1.94,24.38L0,28.1a18.92,18.92,0,0,0,5.26,2.67,20.84,20.84,0,0,0,6.63,1.05,14.47,14.47,0,0,0,8.33-2.15,7.12,7.12,0,0,0,3.11-6.26A7,7,0,0,0,23.09,21.53Z"/><path class="cls-2" d="M43,11.48v3A8.42,8.42,0,0,0,36,11a9.21,9.21,0,0,0-7,3,10.44,10.44,0,0,0-2.79,7.48A10.4,10.4,0,0,0,29,28.92a9.16,9.16,0,0,0,7,2.94,8.39,8.39,0,0,0,7-3.48v3H47.3V11.48Zm-1.8,14.45a5.77,5.77,0,0,1-4.35,1.84A5.58,5.58,0,0,1,32.55,26a6.14,6.14,0,0,1-1.74-4.48,6.27,6.27,0,0,1,1.74-4.55,6.07,6.07,0,0,1,8.65,0,6.18,6.18,0,0,1,1.74,4.45A6.32,6.32,0,0,1,41.18,25.93Z"/><path class="cls-2" d="M61.33,3.9,59.76,8.85h4.52l2.3-4.95ZM67,11.48V22a5.93,5.93,0,0,1-1.53,4.17,4.91,4.91,0,0,1-3.72,1.65,4.22,4.22,0,0,1-3.26-1.39,5.16,5.16,0,0,1-1.27-3.62V11.48H52.52V23.12a9,9,0,0,0,2.14,6.35,7.33,7.33,0,0,0,5.66,2.35,8,8,0,0,0,6.79-3.32v2.91h4.45V11.48Z"/><path class="cls-2" d="M92.34,3.9V14.35a8.52,8.52,0,0,0-6.87-3.23,9,9,0,0,0-6.91,3,10.29,10.29,0,0,0-2.79,7.4,10.5,10.5,0,0,0,2.74,7.41,8.92,8.92,0,0,0,6.84,3,8.64,8.64,0,0,0,7.07-3.32v2.87h4.49V3.9ZM90.7,26a5.81,5.81,0,0,1-4.38,1.82A5.55,5.55,0,0,1,82.07,26a6.38,6.38,0,0,1-1.7-4.52A6.27,6.27,0,0,1,82.07,17a5.64,5.64,0,0,1,4.29-1.8A5.83,5.83,0,0,1,90.7,17a6.11,6.11,0,0,1,1.76,4.47A6.21,6.21,0,0,1,90.7,26Z"/><path class="cls-2" d="M122,20.94a9.4,9.4,0,0,0-2.89-7.09,10.23,10.23,0,0,0-7.38-2.77A10.49,10.49,0,0,0,104.11,14a10,10,0,0,0-3,7.48,10.07,10.07,0,0,0,3,7.48,10.45,10.45,0,0,0,7.68,2.91,11.62,11.62,0,0,0,5.74-1.4,7.85,7.85,0,0,0,3.52-3.7l-3.64-1.62a5.6,5.6,0,0,1-2.25,2.25,6.69,6.69,0,0,1-3.33.83,6,6,0,0,1-6.23-5.42h16.37Q122,21.82,122,20.94ZM105.6,19.77a6.26,6.26,0,0,1,2.08-3.72,5.9,5.9,0,0,1,4-1.46,5.82,5.82,0,0,1,4,1.44,5.91,5.91,0,0,1,2,3.74Z"/><path class="cls-2" d="M218.09,27.78V20.22H232.2v-4H218.09V8.9h14.59V4.82h-19.2v27h19.64V27.78Z"/><path class="cls-2" d="M267.57,13.73a7.82,7.82,0,0,0-5.74-2.16,9.12,9.12,0,0,0-4,.89,8.37,8.37,0,0,0-3.08,2.46,6.69,6.69,0,0,0-6.26-3.35,8.07,8.07,0,0,0-3.64.83A7.8,7.8,0,0,0,242,14.64V11.93h-4.45V31.86h4.65V21.27a5.89,5.89,0,0,1,1.4-4.12,4.54,4.54,0,0,1,3.53-1.54,3.77,3.77,0,0,1,3.06,1.33,5.4,5.4,0,0,1,1.11,3.56V31.86H256V21.19a5.87,5.87,0,0,1,1.35-4.06,4.44,4.44,0,0,1,3.46-1.52,4.09,4.09,0,0,1,3.09,1.25,4.66,4.66,0,0,1,1.19,3.36V31.86h4.65V19.37A7.56,7.56,0,0,0,267.57,13.73Z"/><path class="cls-2" d="M293.28,14.54a8.93,8.93,0,0,0-6.83-3,8.58,8.58,0,0,0-7,3.31v-3h-4.53V40h4.61V29.11a8.48,8.48,0,0,0,6.95,3.2,9,9,0,0,0,6.83-3A10.42,10.42,0,0,0,296,22,10.47,10.47,0,0,0,293.28,14.54Zm-3.53,12a5.64,5.64,0,0,1-4.27,1.81,5.88,5.88,0,0,1-4.39-1.81A6.3,6.3,0,0,1,279.33,22a6.2,6.2,0,0,1,1.76-4.51,5.86,5.86,0,0,1,4.35-1.8,5.71,5.71,0,0,1,4.31,1.82A6.3,6.3,0,0,1,291.46,22,6.38,6.38,0,0,1,289.75,26.49Z"/><path class="cls-2" d="M310.63,11.53a6.43,6.43,0,0,0-5.91,3.11V11.93h-4.44V31.86h4.57V21.68a6,6,0,0,1,1.45-4.21,5.09,5.09,0,0,1,3.92-1.58,8.36,8.36,0,0,1,2.87.49l0-4.49A8.74,8.74,0,0,0,310.63,11.53Z"/><path class="cls-2" d="M335.69,21.39a9.37,9.37,0,0,0-2.89-7.09,10.21,10.21,0,0,0-7.38-2.77,10.53,10.53,0,0,0-7.64,2.91,10,10,0,0,0-3,7.48,10.09,10.09,0,0,0,2.95,7.48,10.48,10.48,0,0,0,7.68,2.91,11.66,11.66,0,0,0,5.75-1.4,7.78,7.78,0,0,0,3.51-3.7L331,25.6a5.61,5.61,0,0,1-2.24,2.24,6.73,6.73,0,0,1-3.34.83,6,6,0,0,1-6.22-5.42h16.37C335.67,22.6,335.69,22,335.69,21.39Zm-16.41-1.17a6.21,6.21,0,0,1,2.08-3.72,6,6,0,0,1,9.93,3.72Z"/><path class="cls-2" d="M359.47,21.39a9.4,9.4,0,0,0-2.89-7.09,10.23,10.23,0,0,0-7.38-2.77,10.49,10.49,0,0,0-7.64,2.91,10,10,0,0,0-3,7.48,10.06,10.06,0,0,0,3,7.48,10.45,10.45,0,0,0,7.68,2.91,11.62,11.62,0,0,0,5.74-1.4,7.85,7.85,0,0,0,3.52-3.7l-3.64-1.61a5.64,5.64,0,0,1-2.25,2.24,6.69,6.69,0,0,1-3.33.83A6,6,0,0,1,343,23.25h16.37Q359.47,22.28,359.47,21.39Zm-16.42-1.17a6.21,6.21,0,0,1,2.08-3.72,5.9,5.9,0,0,1,4-1.46,5.82,5.82,0,0,1,4,1.44,5.91,5.91,0,0,1,2,3.74Z"/><path class="cls-2" d="M380.43,13.83a8.4,8.4,0,0,0-12.35,1V11.93h-4.45V31.86h4.65V21.59a6.3,6.3,0,0,1,1.47-4.28,4.72,4.72,0,0,1,3.7-1.7A4.24,4.24,0,0,1,376.73,17,5.12,5.12,0,0,1,378,20.62V31.86h4.65V19.61A7.89,7.89,0,0,0,380.43,13.83Z"/><path class="cls-2" d="M403.13,3.4V14.8a8.52,8.52,0,0,0-6.87-3.23,9.06,9.06,0,0,0-6.92,2.95,10.35,10.35,0,0,0-2.79,7.4,10.53,10.53,0,0,0,2.75,7.42,8.94,8.94,0,0,0,6.83,3A8.64,8.64,0,0,0,403.21,29v2.87h4.49V3.4Zm-1.64,23.05a5.84,5.84,0,0,1-4.38,1.81,5.57,5.57,0,0,1-4.25-1.81,6.42,6.42,0,0,1-1.7-4.53,6.27,6.27,0,0,1,1.7-4.47,5.64,5.64,0,0,1,4.29-1.8,5.83,5.83,0,0,1,4.34,1.8,6.15,6.15,0,0,1,1.76,4.47A6.3,6.3,0,0,1,401.49,26.45Z"/><path class="cls-2" d="M432.81,21.39a9.38,9.38,0,0,0-2.9-7.09,10.19,10.19,0,0,0-7.38-2.77,10.53,10.53,0,0,0-7.64,2.91,10,10,0,0,0-3,7.48,10.09,10.09,0,0,0,3,7.48,10.48,10.48,0,0,0,7.68,2.91,11.63,11.63,0,0,0,5.75-1.4,7.78,7.78,0,0,0,3.51-3.7l-3.63-1.61a5.7,5.7,0,0,1-2.25,2.24,6.69,6.69,0,0,1-3.33.83,6,6,0,0,1-6.23-5.42h16.37Q432.81,22.28,432.81,21.39Zm-16.42-1.17a6.21,6.21,0,0,1,2.08-3.72,5.9,5.9,0,0,1,4-1.46,5.82,5.82,0,0,1,4,1.44,5.91,5.91,0,0,1,2,3.74Z"/></g></g></svg>