<svg width="26" height="67" viewBox="0 0 26 67" fill="none" xmlns="http://www.w3.org/2000/svg">
<path id="Vector" fill-rule="evenodd" clip-rule="evenodd" d="M25.5431 52.7722C26.1523 53.3945 26.1523 54.4032 25.5431 55.0255L14.3972 66.4089C13.6256 67.197 12.3744 67.197 11.6028 66.4089L0.456911 55.0255C-0.152306 54.4032 -0.152306 53.3944 0.456911 52.7722C1.06613 52.15 2.05387 52.15 2.66308 52.7722L11.44 61.7363L11.44 1.59326C11.44 0.713323 12.1384 -6.05908e-07 13 -5.68248e-07C13.8616 -5.30588e-07 14.56 0.713324 14.56 1.59326L14.56 61.7363L23.3369 52.7722C23.9461 52.15 24.9339 52.15 25.5431 52.7722Z" fill="white"/>
</svg>
